<svg width="564" height="116" viewBox="0 0 564 116" fill="none" xmlns="http://www.w3.org/2000/svg">
<path d="M66.4322 96.6549C61.8364 96.6549 57.7232 96.6549 53.61 96.6549C45.9811 96.6549 38.3522 96.7238 30.7462 96.586C29.7352 96.563 28.3794 95.7587 27.782 94.9085C26.1045 92.4268 24.7258 89.7383 23.0483 86.797C31.7573 86.797 40.0756 86.797 48.9683 86.797C48.3249 85.5562 47.9343 84.706 47.4747 83.9017C41.2015 72.9868 34.9054 62.0949 28.7011 51.157C28.1726 50.2149 27.8279 48.5834 28.2875 47.7562C34.3539 36.9562 40.5581 26.2481 46.9232 15.1953C47.5207 16.0685 47.9803 16.6889 48.3709 17.3553C54.1615 27.374 59.9062 37.4157 65.7658 47.4115C66.57 48.7902 66.616 49.8013 65.7658 51.134C64.1343 53.6617 62.7096 56.3042 60.9632 59.2685C56.2986 51.203 51.7947 43.4362 47.0381 35.1868C44.3726 39.8285 41.822 44.1255 39.5011 48.5374C39.2024 49.1349 39.8917 50.3987 40.3743 51.226C48.4628 65.3349 56.5743 79.4208 64.6858 93.5068C65.1683 94.357 65.6509 95.2302 66.4322 96.6549Z" fill="#B2AC88"/>
<path d="M94.0752 96.644C90.3067 96.644 87.1816 96.7359 84.0795 96.575C83.2752 96.5291 82.1493 95.9316 81.7356 95.2422C76.9331 87.1078 72.2224 78.9044 67.5577 70.701C67.259 70.1725 67.0982 69.2303 67.3739 68.7478C69.0054 65.6916 70.7748 62.7274 72.659 59.4414C79.8514 71.9418 86.8369 84.0516 94.0752 96.644Z" fill="#B2AC88"/>
<path d="M21.4391 59.4688C23.3234 62.7317 25.0928 65.627 26.6553 68.6143C26.977 69.2117 26.7472 70.3836 26.3566 71.05C21.8298 79.0236 17.257 86.9743 12.5694 94.833C12.0409 95.7062 10.6851 96.4875 9.65107 96.5564C6.64085 96.7862 3.60766 96.6483 0 96.6483C7.21532 84.1479 14.2238 71.9922 21.4391 59.4688Z" fill="#B2AC88"/>
<path d="M123.185 89.4834C121.896 89.4834 120.832 89.0645 119.994 88.2265C119.221 87.3886 118.834 86.3573 118.834 85.1327C118.834 84.617 118.995 83.9725 119.318 83.199L143.972 24.9958C144.487 23.8356 145.196 22.901 146.099 22.192C147.066 21.4186 148.226 21.0318 149.579 21.0318H150.546C151.9 21.0318 153.028 21.4186 153.93 22.192C154.897 22.901 155.638 23.8356 156.154 24.9958L180.808 83.199C181.13 83.9725 181.291 84.617 181.291 85.1327C181.291 86.3573 180.872 87.3886 180.035 88.2265C179.261 89.0645 178.23 89.4834 176.941 89.4834C176.038 89.4834 175.2 89.2578 174.427 88.8066C173.718 88.291 173.17 87.6142 172.783 86.7763L166.499 71.6937H133.627L127.342 86.7763C126.956 87.6142 126.375 88.291 125.602 88.8066C124.893 89.2578 124.087 89.4834 123.185 89.4834ZM137.011 63.669H163.115L150.063 32.2471L137.011 63.669ZM194.656 89.4834C193.432 89.4834 192.4 89.0645 191.562 88.2265C190.725 87.3886 190.306 86.3573 190.306 85.1327V22.3854C190.306 21.1607 190.725 20.1295 191.562 19.2915C192.4 18.3892 193.432 17.938 194.656 17.938C195.881 17.938 196.912 18.3892 197.75 19.2915C198.653 20.1295 199.104 21.1607 199.104 22.3854V61.9288L222.114 40.6585C223.081 39.8206 224.048 39.4016 225.015 39.4016C226.497 39.4016 227.561 39.8206 228.205 40.6585C228.914 41.4964 229.269 42.4955 229.269 43.6557C229.269 44.7514 228.721 45.8471 227.625 46.9429L213.703 59.415L231.202 82.6189C231.847 83.4568 232.169 84.327 232.169 85.2294C232.169 86.5185 231.75 87.5498 230.912 88.3232C230.075 89.0967 229.011 89.4834 227.722 89.4834C227.077 89.4834 226.433 89.3223 225.788 89C225.144 88.6777 224.596 88.2265 224.145 87.6464L207.515 65.0226L199.104 72.6606V85.1327C199.104 86.3573 198.653 87.3886 197.75 88.2265C196.912 89.0645 195.881 89.4834 194.656 89.4834ZM256.913 89.9668C253.368 89.9668 250.274 89.1289 247.631 87.4531C245.053 85.7772 243.055 83.4891 241.637 80.5886C240.283 77.6881 239.606 74.4975 239.606 71.017V43.559C239.606 42.3343 240.025 41.303 240.863 40.4651C241.766 39.6272 242.829 39.2082 244.054 39.2082C245.278 39.2082 246.31 39.6272 247.148 40.4651C247.986 41.303 248.405 42.3343 248.405 43.559V70.0501C248.405 77.9137 251.95 81.8455 259.04 81.8455C262.262 81.8455 265.131 81.0075 267.644 79.3317C270.223 77.6559 272.64 75.3999 274.896 72.5639V43.559C274.896 42.3343 275.315 41.303 276.153 40.4651C277.055 39.6272 278.118 39.2082 279.343 39.2082C280.568 39.2082 281.599 39.6272 282.437 40.4651C283.275 41.303 283.694 42.3343 283.694 43.559V85.036C283.694 86.2606 283.275 87.3242 282.437 88.2265C281.599 89.0645 280.568 89.4834 279.343 89.4834C278.118 89.4834 277.055 89.0645 276.153 88.2265C275.315 87.3242 274.896 86.2606 274.896 85.036V81.072C272.446 83.7791 269.804 85.9384 266.968 87.5498C264.132 89.1611 260.78 89.9668 256.913 89.9668ZM300.456 89.4834C299.232 89.4834 298.2 89.0645 297.362 88.2265C296.524 87.3886 296.105 86.3573 296.105 85.1327V43.6557C296.105 42.431 296.524 41.3997 297.362 40.5618C298.2 39.6594 299.232 39.2082 300.456 39.2082C301.681 39.2082 302.712 39.6594 303.55 40.5618C304.452 41.3997 304.904 42.431 304.904 43.6557V47.6197C307.353 44.9125 309.996 42.7533 312.832 41.1419C315.668 39.5305 319.019 38.7248 322.887 38.7248C326.432 38.7248 329.493 39.5627 332.072 41.2386C334.714 42.9144 336.712 45.2026 338.066 48.1031C339.484 51.0036 340.193 54.1941 340.193 57.6747V85.1327C340.193 86.3573 339.742 87.3886 338.839 88.2265C338.001 89.0645 336.97 89.4834 335.746 89.4834C334.521 89.4834 333.49 89.0645 332.652 88.2265C331.814 87.3886 331.395 86.3573 331.395 85.1327V58.6415C331.395 50.778 327.85 46.8462 320.76 46.8462C317.537 46.8462 314.636 47.6841 312.058 49.36C309.544 51.0358 307.16 53.2917 304.904 56.1278V85.1327C304.904 86.3573 304.452 87.3886 303.55 88.2265C302.712 89.0645 301.681 89.4834 300.456 89.4834ZM368.004 89.9668C358.594 89.9668 353.889 85.7128 353.889 77.2047V47.2329H347.024C346.509 47.2329 346.057 47.0718 345.671 46.7495C345.348 46.3628 345.187 45.9116 345.187 45.396C345.187 44.7514 345.477 44.2035 346.057 43.7523L359.206 30.8935C359.786 30.3134 360.334 30.0234 360.85 30.0234C361.366 30.0234 361.784 30.2167 362.107 30.6035C362.493 30.9902 362.687 31.4414 362.687 31.957V39.6917H373.612C374.708 39.6917 375.61 40.0462 376.319 40.7552C377.028 41.4642 377.383 42.3666 377.383 43.4623C377.383 44.4936 377.028 45.396 376.319 46.1694C375.61 46.8784 374.708 47.2329 373.612 47.2329H362.687V76.4312C362.687 78.945 363.267 80.5563 364.427 81.2654C365.652 81.9099 367.167 82.2322 368.971 82.2322C370.26 82.2322 371.549 82.0388 372.839 81.6521C373.096 81.5876 373.354 81.5232 373.612 81.4587C373.934 81.3943 374.321 81.362 374.772 81.362C375.675 81.362 376.48 81.7165 377.189 82.4256C377.898 83.0701 378.253 83.8758 378.253 84.8426C378.253 86.3251 377.512 87.4531 376.029 88.2265C373.515 89.3867 370.84 89.9668 368.004 89.9668ZM389.356 89.4834C388.131 89.4834 387.1 89.0645 386.262 88.2265C385.424 87.3886 385.005 86.3573 385.005 85.1327V22.3854C385.005 21.1607 385.424 20.1295 386.262 19.2915C387.1 18.3892 388.131 17.938 389.356 17.938C390.58 17.938 391.611 18.3892 392.449 19.2915C393.352 20.1295 393.803 21.1607 393.803 22.3854V47.6197C396.252 44.9125 398.895 42.7533 401.731 41.1419C404.567 39.5305 407.919 38.7248 411.786 38.7248C415.331 38.7248 418.393 39.5627 420.971 41.2386C423.614 42.9144 425.612 45.2026 426.965 48.1031C428.383 51.0036 429.092 54.1941 429.092 57.6747V85.1327C429.092 86.3573 428.641 87.3886 427.739 88.2265C426.901 89.0645 425.869 89.4834 424.645 89.4834C423.42 89.4834 422.389 89.0645 421.551 88.2265C420.713 87.3886 420.294 86.3573 420.294 85.1327V58.6415C420.294 50.778 416.749 46.8462 409.659 46.8462C406.436 46.8462 403.536 47.6841 400.957 49.36C398.444 51.0358 396.059 53.2917 393.803 56.1278V85.1327C393.803 86.3573 393.352 87.3886 392.449 88.2265C391.611 89.0645 390.58 89.4834 389.356 89.4834ZM445.178 29.6366C443.824 29.6366 442.664 29.1532 441.697 28.1864C440.73 27.2195 440.247 26.0593 440.247 24.7058V24.3191C440.247 22.9655 440.73 21.8053 441.697 20.8385C442.664 19.8716 443.824 19.3882 445.178 19.3882H445.758C447.112 19.3882 448.272 19.8716 449.239 20.8385C450.205 21.8053 450.689 22.9655 450.689 24.3191V24.7058C450.689 26.0593 450.205 27.2195 449.239 28.1864C448.272 29.1532 447.112 29.6366 445.758 29.6366H445.178ZM445.371 89.4834C444.147 89.4834 443.115 89.0645 442.277 88.2265C441.439 87.3886 441.02 86.3573 441.02 85.1327V43.6557C441.02 42.431 441.439 41.3997 442.277 40.5618C443.115 39.6594 444.147 39.2082 445.371 39.2082C446.66 39.2082 447.724 39.6272 448.562 40.4651C449.4 41.303 449.819 42.3666 449.819 43.6557V85.1327C449.819 86.3573 449.367 87.3886 448.465 88.2265C447.627 89.0645 446.596 89.4834 445.371 89.4834ZM466.547 89.4834C465.322 89.4834 464.291 89.0645 463.453 88.2265C462.615 87.3886 462.196 86.3573 462.196 85.1327V43.6557C462.196 42.431 462.615 41.3997 463.453 40.5618C464.291 39.6594 465.322 39.2082 466.547 39.2082C467.772 39.2082 468.803 39.6594 469.641 40.5618C470.543 41.3997 470.994 42.431 470.994 43.6557V47.6197C473.444 44.9125 476.086 42.7533 478.923 41.1419C481.759 39.5305 485.11 38.7248 488.978 38.7248C492.523 38.7248 495.584 39.5627 498.162 41.2386C500.805 42.9144 502.803 45.2026 504.157 48.1031C505.575 51.0036 506.284 54.1941 506.284 57.6747V85.1327C506.284 86.3573 505.833 87.3886 504.93 88.2265C504.092 89.0645 503.061 89.4834 501.836 89.4834C500.612 89.4834 499.58 89.0645 498.743 88.2265C497.905 87.3886 497.486 86.3573 497.486 85.1327V58.6415C497.486 50.778 493.941 46.8462 486.851 46.8462C483.628 46.8462 480.727 47.6841 478.149 49.36C475.635 51.0358 473.25 53.2917 470.994 56.1278V85.1327C470.994 86.3573 470.543 87.3886 469.641 88.2265C468.803 89.0645 467.772 89.4834 466.547 89.4834ZM522.563 89.4834C521.338 89.4834 520.307 89.0645 519.469 88.2265C518.631 87.3886 518.212 86.3573 518.212 85.1327V22.3854C518.212 21.1607 518.631 20.1295 519.469 19.2915C520.307 18.3892 521.338 17.938 522.563 17.938C523.787 17.938 524.819 18.3892 525.657 19.2915C526.559 20.1295 527.01 21.1607 527.01 22.3854V61.9288L550.021 40.6585C550.988 39.8206 551.954 39.4016 552.921 39.4016C554.404 39.4016 555.467 39.8206 556.112 40.6585C556.821 41.4964 557.175 42.4955 557.175 43.6557C557.175 44.7514 556.627 45.8471 555.532 46.9429L541.609 59.415L559.109 82.6189C559.754 83.4568 560.076 84.327 560.076 85.2294C560.076 86.5185 559.657 87.5498 558.819 88.3232C557.981 89.0967 556.918 89.4834 555.628 89.4834C554.984 89.4834 554.339 89.3223 553.695 89C553.05 88.6777 552.502 88.2265 552.051 87.6464L535.422 65.0226L527.01 72.6606V85.1327C527.01 86.3573 526.559 87.3886 525.657 88.2265C524.819 89.0645 523.787 89.4834 522.563 89.4834Z" fill="white"/>
</svg>
