<svg width="245" height="47" viewBox="0 0 245 47" fill="none" xmlns="http://www.w3.org/2000/svg">
<path d="M28.9103 39.45C26.9103 39.45 25.1203 39.45 23.3303 39.45C20.0103 39.45 16.6903 39.48 13.3803 39.42C12.9403 39.41 12.3503 39.06 12.0903 38.69C11.3603 37.61 10.7603 36.44 10.0303 35.16C13.8203 35.16 17.4403 35.16 21.3103 35.16C21.0303 34.62 20.8603 34.25 20.6603 33.9C17.9303 29.15 15.1903 24.41 12.4903 19.65C12.2603 19.24 12.1103 18.53 12.3103 18.17C14.9503 13.47 17.6503 8.81 20.4203 4C20.6803 4.38 20.8803 4.65 21.0503 4.94C23.5703 9.3 26.0703 13.67 28.6203 18.02C28.9703 18.62 28.9903 19.06 28.6203 19.64C27.9103 20.74 27.2903 21.89 26.5303 23.18C24.5003 19.67 22.5403 16.29 20.4703 12.7C19.3103 14.72 18.2003 16.59 17.1903 18.51C17.0603 18.77 17.3603 19.32 17.5703 19.68C21.0903 25.82 24.6203 31.95 28.1503 38.08C28.3603 38.45 28.5703 38.83 28.9103 39.45Z" fill="#B2AC88"/>
<path d="M40.9401 39.4478C39.3001 39.4478 37.9401 39.4878 36.5901 39.4178C36.2401 39.3978 35.7501 39.1378 35.5701 38.8378C33.4801 35.2978 31.4301 31.7278 29.4001 28.1578C29.2701 27.9278 29.2001 27.5178 29.3201 27.3078C30.0301 25.9778 30.8001 24.6878 31.6201 23.2578C34.7501 28.6978 37.7901 33.9678 40.9401 39.4478Z" fill="#B2AC88"/>
<path d="M9.33 23.2695C10.15 24.6895 10.92 25.9495 11.6 27.2495C11.74 27.5095 11.64 28.0195 11.47 28.3095C9.5 31.7795 7.51 35.2395 5.47 38.6595C5.24 39.0395 4.65 39.3795 4.2 39.4095C2.89 39.5095 1.57 39.4495 0 39.4495C3.14 34.0095 6.19 28.7195 9.33 23.2695Z" fill="#B2AC88"/>
<path d="M56.7215 36.1959C56.1992 36.1959 55.7682 36.0261 55.4287 35.6866C55.1154 35.3471 54.9587 34.9293 54.9587 34.4331C54.9587 34.2241 55.024 33.963 55.1545 33.6496L65.1437 10.0673C65.3526 9.5972 65.6399 9.21852 66.0055 8.93125C66.3973 8.61786 66.8673 8.46117 67.4158 8.46117H67.8075C68.3559 8.46117 68.813 8.61786 69.1786 8.93125C69.5703 9.21852 69.8706 9.5972 70.0796 10.0673L80.0688 33.6496C80.1993 33.963 80.2646 34.2241 80.2646 34.4331C80.2646 34.9293 80.0949 35.3471 79.7554 35.6866C79.442 36.0261 79.0241 36.1959 78.5018 36.1959C78.1362 36.1959 77.7967 36.1045 77.4833 35.9217C77.196 35.7127 76.9741 35.4385 76.8174 35.099L74.2711 28.988H60.9522L58.4059 35.099C58.2492 35.4385 58.0142 35.7127 57.7008 35.9217C57.4135 36.1045 57.0871 36.1959 56.7215 36.1959ZM62.3232 25.7366H72.9L67.6116 13.0053L62.3232 25.7366ZM86.8549 36.1959C86.3587 36.1959 85.9409 36.0261 85.6014 35.6866C85.2619 35.3471 85.0921 34.9293 85.0921 34.4331V9.0096C85.0921 8.5134 85.2619 8.09555 85.6014 7.75605C85.9409 7.39043 86.3587 7.20763 86.8549 7.20763C87.3511 7.20763 87.769 7.39043 88.1085 7.75605C88.4741 8.09555 88.6569 8.5134 88.6569 9.0096V25.0315L97.9801 16.4134C98.3719 16.0738 98.7636 15.9041 99.1553 15.9041C99.756 15.9041 100.187 16.0738 100.448 16.4134C100.735 16.7529 100.879 17.1576 100.879 17.6277C100.879 18.0717 100.657 18.5157 100.213 18.9596L94.5721 24.013L101.662 33.4146C101.924 33.7541 102.054 34.1066 102.054 34.4722C102.054 34.9946 101.884 35.4124 101.545 35.7258C101.205 36.0392 100.774 36.1959 100.252 36.1959C99.991 36.1959 99.7299 36.1306 99.4687 36C99.2076 35.8694 98.9856 35.6866 98.8028 35.4516L92.065 26.285L88.6569 29.3797V34.4331C88.6569 34.9293 88.4741 35.3471 88.1085 35.6866C87.769 36.0261 87.3511 36.1959 86.8549 36.1959ZM113.255 36.3917C111.818 36.3917 110.565 36.0522 109.494 35.3732C108.449 34.6942 107.64 33.7671 107.065 32.5919C106.517 31.4167 106.243 30.124 106.243 28.7138V17.5885C106.243 17.0924 106.412 16.6745 106.752 16.335C107.118 15.9955 107.548 15.8257 108.045 15.8257C108.541 15.8257 108.959 15.9955 109.298 16.335C109.638 16.6745 109.807 17.0924 109.807 17.5885V28.322C109.807 31.5081 111.244 33.1012 114.116 33.1012C115.422 33.1012 116.584 32.7617 117.603 32.0827C118.648 31.4037 119.627 30.4896 120.541 29.3405V17.5885C120.541 17.0924 120.711 16.6745 121.05 16.335C121.416 15.9955 121.847 15.8257 122.343 15.8257C122.839 15.8257 123.257 15.9955 123.596 16.335C123.936 16.6745 124.106 17.0924 124.106 17.5885V34.3939C124.106 34.8901 123.936 35.321 123.596 35.6866C123.257 36.0261 122.839 36.1959 122.343 36.1959C121.847 36.1959 121.416 36.0261 121.05 35.6866C120.711 35.321 120.541 34.8901 120.541 34.3939V32.7878C119.548 33.8846 118.478 34.7595 117.329 35.4124C116.18 36.0653 114.822 36.3917 113.255 36.3917ZM132.073 36.1959C131.576 36.1959 131.158 36.0261 130.819 35.6866C130.479 35.3471 130.31 34.9293 130.31 34.4331V17.6277C130.31 17.1315 130.479 16.7137 130.819 16.3742C131.158 16.0086 131.576 15.8257 132.073 15.8257C132.569 15.8257 132.987 16.0086 133.326 16.3742C133.692 16.7137 133.875 17.1315 133.875 17.6277V19.2338C134.867 18.137 135.938 17.2621 137.087 16.6092C138.236 15.9563 139.594 15.6299 141.161 15.6299C142.597 15.6299 143.838 15.9694 144.882 16.6484C145.953 17.3274 146.763 18.2545 147.311 19.4297C147.885 20.6049 148.173 21.8976 148.173 23.3079V34.4331C148.173 34.9293 147.99 35.3471 147.624 35.6866C147.285 36.0261 146.867 36.1959 146.371 36.1959C145.875 36.1959 145.457 36.0261 145.117 35.6866C144.778 35.3471 144.608 34.9293 144.608 34.4331V23.6996C144.608 20.5135 143.172 18.9204 140.299 18.9204C138.993 18.9204 137.818 19.2599 136.773 19.9389C135.755 20.618 134.789 21.532 133.875 22.6811V34.4331C133.875 34.9293 133.692 35.3471 133.326 35.6866C132.987 36.0261 132.569 36.1959 132.073 36.1959ZM160.616 36.3917C156.804 36.3917 154.897 34.6681 154.897 31.2209V19.0771H152.116C151.907 19.0771 151.724 19.0118 151.567 18.8813C151.437 18.7246 151.371 18.5418 151.371 18.3328C151.371 18.0717 151.489 17.8497 151.724 17.6669L157.052 12.4568C157.287 12.2218 157.509 12.1043 157.718 12.1043C157.926 12.1043 158.096 12.1826 158.227 12.3393C158.384 12.496 158.462 12.6788 158.462 12.8878V16.0216H162.888C163.332 16.0216 163.698 16.1653 163.985 16.4525C164.273 16.7398 164.416 17.1054 164.416 17.5494C164.416 17.9672 164.273 18.3328 163.985 18.6462C163.698 18.9335 163.332 19.0771 162.888 19.0771H158.462V30.9075C158.462 31.926 158.697 32.5789 159.167 32.8661C159.663 33.1273 160.277 33.2579 161.008 33.2579C161.53 33.2579 162.053 33.1795 162.575 33.0228C162.68 32.9967 162.784 32.9706 162.888 32.9445C163.019 32.9184 163.176 32.9053 163.359 32.9053C163.724 32.9053 164.051 33.0489 164.338 33.3362C164.625 33.5974 164.769 33.9238 164.769 34.3155C164.769 34.9162 164.468 35.3732 163.868 35.6866C162.849 36.1567 161.765 36.3917 160.616 36.3917ZM170.442 36.1959C169.946 36.1959 169.528 36.0261 169.189 35.6866C168.849 35.3471 168.68 34.9293 168.68 34.4331V9.0096C168.68 8.5134 168.849 8.09555 169.189 7.75605C169.528 7.39043 169.946 7.20763 170.442 7.20763C170.939 7.20763 171.357 7.39043 171.696 7.75605C172.062 8.09555 172.244 8.5134 172.244 9.0096V19.2338C173.237 18.137 174.308 17.2621 175.457 16.6092C176.606 15.9563 177.964 15.6299 179.531 15.6299C180.967 15.6299 182.208 15.9694 183.252 16.6484C184.323 17.3274 185.132 18.2545 185.681 19.4297C186.255 20.6049 186.543 21.8976 186.543 23.3079V34.4331C186.543 34.9293 186.36 35.3471 185.994 35.6866C185.655 36.0261 185.237 36.1959 184.741 36.1959C184.245 36.1959 183.827 36.0261 183.487 35.6866C183.148 35.3471 182.978 34.9293 182.978 34.4331V23.6996C182.978 20.5135 181.542 18.9204 178.669 18.9204C177.363 18.9204 176.188 19.2599 175.143 19.9389C174.125 20.618 173.158 21.532 172.244 22.6811V34.4331C172.244 34.9293 172.062 35.3471 171.696 35.6866C171.357 36.0261 170.939 36.1959 170.442 36.1959ZM194.235 11.9476C193.687 11.9476 193.217 11.7517 192.825 11.36C192.433 10.9683 192.238 10.4982 192.238 9.94976V9.79306C192.238 9.24464 192.433 8.77456 192.825 8.38282C193.217 7.99109 193.687 7.79522 194.235 7.79522H194.47C195.019 7.79522 195.489 7.99109 195.881 8.38282C196.272 8.77456 196.468 9.24464 196.468 9.79306V9.94976C196.468 10.4982 196.272 10.9683 195.881 11.36C195.489 11.7517 195.019 11.9476 194.47 11.9476H194.235ZM194.314 36.1959C193.818 36.1959 193.4 36.0261 193.06 35.6866C192.721 35.3471 192.551 34.9293 192.551 34.4331V17.6277C192.551 17.1315 192.721 16.7137 193.06 16.3742C193.4 16.0086 193.818 15.8257 194.314 15.8257C194.836 15.8257 195.267 15.9955 195.606 16.335C195.946 16.6745 196.116 17.1054 196.116 17.6277V34.4331C196.116 34.9293 195.933 35.3471 195.567 35.6866C195.228 36.0261 194.81 36.1959 194.314 36.1959ZM204.069 36.1959C203.573 36.1959 203.155 36.0261 202.815 35.6866C202.476 35.3471 202.306 34.9293 202.306 34.4331V17.6277C202.306 17.1315 202.476 16.7137 202.815 16.3742C203.155 16.0086 203.573 15.8257 204.069 15.8257C204.565 15.8257 204.983 16.0086 205.322 16.3742C205.688 16.7137 205.871 17.1315 205.871 17.6277V19.2338C206.863 18.137 207.934 17.2621 209.083 16.6092C210.232 15.9563 211.59 15.6299 213.157 15.6299C214.593 15.6299 215.834 15.9694 216.878 16.6484C217.949 17.3274 218.759 18.2545 219.307 19.4297C219.882 20.6049 220.169 21.8976 220.169 23.3079V34.4331C220.169 34.9293 219.986 35.3471 219.621 35.6866C219.281 36.0261 218.863 36.1959 218.367 36.1959C217.871 36.1959 217.453 36.0261 217.113 35.6866C216.774 35.3471 216.604 34.9293 216.604 34.4331V23.6996C216.604 20.5135 215.168 18.9204 212.295 18.9204C210.989 18.9204 209.814 19.2599 208.77 19.9389C207.751 20.618 206.785 21.532 205.871 22.6811V34.4331C205.871 34.9293 205.688 35.3471 205.322 35.6866C204.983 36.0261 204.565 36.1959 204.069 36.1959ZM227.94 36.1959C227.444 36.1959 227.026 36.0261 226.686 35.6866C226.347 35.3471 226.177 34.9293 226.177 34.4331V9.0096C226.177 8.5134 226.347 8.09555 226.686 7.75605C227.026 7.39043 227.444 7.20763 227.94 7.20763C228.436 7.20763 228.854 7.39043 229.194 7.75605C229.559 8.09555 229.742 8.5134 229.742 9.0096V25.0315L239.065 16.4134C239.457 16.0738 239.849 15.9041 240.24 15.9041C240.841 15.9041 241.272 16.0738 241.533 16.4134C241.82 16.7529 241.964 17.1576 241.964 17.6277C241.964 18.0717 241.742 18.5157 241.298 18.9596L235.657 24.013L242.748 33.4146C243.009 33.7541 243.139 34.1066 243.139 34.4722C243.139 34.9946 242.969 35.4124 242.63 35.7258C242.29 36.0392 241.86 36.1959 241.337 36.1959C241.076 36.1959 240.815 36.1306 240.554 36C240.293 35.8694 240.071 35.6866 239.888 35.4516L233.15 26.285L229.742 29.3797V34.4331C229.742 34.9293 229.559 35.3471 229.194 35.6866C228.854 36.0261 228.436 36.1959 227.94 36.1959Z" fill="white"/>
</svg>
